# xmcd
#
# Track frame offsets:
#	150
#	22968
#	44039
#	67922
#	90195
#	121939
#	144556
#	176396
#	194361
#	212022
#	228251
#	257467
#	287043
#	303773
#
# Disc length: 4390 seconds
#
# Revision: 0
# Processed by: cddbd v1.5.2PL0 Copyright (c) Steve Scherf et al.
# Submitted via: dBpowerAMP V4.0
#
DISCID=b411240e
DTITLE=Various Artist - Charme Classic's 5
DYEAR=1900
DGENRE=R&B
TTITLE0=Keith Sweet - Make Last Forever
TTITLE1=Feat. Cheryl Lynn and Georgy Porgy - Toto
TTITLE2=Fifth of Heaven - Just a Little More
TTITLE3=Cherrelle - When you look in my eyes
TTITLE4=Sybil - Don't make me over
TTITLE5=Gems for Jem - Time for love
TTITLE6=Change - Change of heart
TTITLE7=Precious Wilson - I'll be your friend
TTITLE8=Trellini - I wanna be yours
TTITLE9=Kylie Minogue - Look my way
TTITLE10=B. B. and Q. feat. Curtis Hairston - Genie
TTITLE11=Skipworth and Turner - Make it last
TTITLE12=Shanile - Love your smile
TTITLE13=Starpoint - Object of my desire
EXTD=Charme Classic's 5
EXTT0=
EXTT1=
EXTT2=
EXTT3=
EXTT4=
EXTT5=
EXTT6=
EXTT7=
EXTT8=
EXTT9=
EXTT10=
EXTT11=
EXTT12=
EXTT13=
PLAYORDER=
